<svg xmlns="http://www.w3.org/2000/svg" xmlns:xlink="http://www.w3.org/1999/xlink" width="200" zoomAndPan="magnify" viewBox="0 0 150 149.999998" height="200" preserveAspectRatio="xMidYMid meet" version="1.0"><defs><clipPath id="f71868ddc0"><path d="M 44.265625 139 L 105.765625 139 L 105.765625 140 L 44.265625 140 Z M 44.265625 139 " clip-rule="nonzero"/></clipPath><clipPath id="2d4b47f70d"><path d="M 66 8.855469 L 83 8.855469 L 83 26 L 66 26 Z M 66 8.855469 " clip-rule="nonzero"/></clipPath><clipPath id="ac5de12125"><path d="M 70 130 L 89 130 L 89 140.855469 L 70 140.855469 Z M 70 130 " clip-rule="nonzero"/></clipPath><clipPath id="2481154f44"><path d="M 55 130 L 74 130 L 74 140.855469 L 55 140.855469 Z M 55 130 " clip-rule="nonzero"/></clipPath></defs><g clip-path="url(#f71868ddc0)"><path fill="#3f3c57" d="M 27.089844 139.515625 C 27.089844 139.710938 27.246094 139.863281 27.4375 139.863281 L 180.421875 139.863281 C 180.617188 139.863281 180.773438 139.710938 180.773438 139.515625 C 180.773438 139.324219 180.617188 139.167969 180.421875 139.167969 L 27.4375 139.167969 C 27.246094 139.167969 27.089844 139.324219 27.089844 139.515625 Z M 27.089844 139.515625 " fill-opacity="1" fill-rule="nonzero"/></g><path fill="#fdb4b4" d="M 77.003906 22.882812 L 78.667969 30.449219 L 75.128906 40.980469 L 69.429688 29.664062 L 70.21875 23.101562 Z M 77.003906 22.882812 " fill-opacity="1" fill-rule="nonzero"/><path fill="#6c63ff" d="M 69.132812 30.054688 L 78.976562 30.054688 L 78.976562 41.910156 L 69.132812 41.910156 Z M 69.132812 30.054688 " fill-opacity="1" fill-rule="nonzero"/><path fill="#fdb4b4" d="M 81.652344 19.992188 C 81.652344 20.433594 81.609375 20.867188 81.523438 21.300781 C 81.4375 21.730469 81.308594 22.152344 81.140625 22.558594 C 80.972656 22.964844 80.765625 23.351562 80.519531 23.714844 C 80.273438 24.082031 79.996094 24.417969 79.683594 24.730469 C 79.371094 25.042969 79.03125 25.320312 78.664062 25.5625 C 78.296875 25.808594 77.910156 26.015625 77.503906 26.183594 C 77.09375 26.351562 76.675781 26.480469 76.242188 26.566406 C 75.808594 26.648438 75.371094 26.691406 74.929688 26.691406 C 74.488281 26.691406 74.050781 26.648438 73.617188 26.566406 C 73.183594 26.480469 72.765625 26.351562 72.355469 26.183594 C 71.949219 26.015625 71.5625 25.808594 71.195312 25.5625 C 70.828125 25.320312 70.488281 25.042969 70.175781 24.730469 C 69.863281 24.417969 69.585938 24.082031 69.339844 23.714844 C 69.09375 23.351562 68.886719 22.964844 68.71875 22.558594 C 68.550781 22.152344 68.421875 21.730469 68.335938 21.300781 C 68.25 20.867188 68.207031 20.433594 68.207031 19.992188 C 68.207031 19.554688 68.25 19.117188 68.335938 18.6875 C 68.421875 18.253906 68.550781 17.835938 68.71875 17.429688 C 68.886719 17.023438 69.09375 16.636719 69.339844 16.269531 C 69.585938 15.90625 69.863281 15.566406 70.175781 15.253906 C 70.488281 14.945312 70.828125 14.667969 71.195312 14.421875 C 71.5625 14.179688 71.949219 13.972656 72.355469 13.804688 C 72.765625 13.636719 73.183594 13.507812 73.617188 13.421875 C 74.050781 13.335938 74.488281 13.292969 74.929688 13.292969 C 75.371094 13.292969 75.808594 13.335938 76.242188 13.421875 C 76.675781 13.507812 77.09375 13.636719 77.503906 13.804688 C 77.910156 13.972656 78.296875 14.179688 78.664062 14.421875 C 79.03125 14.667969 79.371094 14.945312 79.683594 15.253906 C 79.996094 15.566406 80.273438 15.90625 80.519531 16.269531 C 80.765625 16.636719 80.972656 17.023438 81.140625 17.429688 C 81.308594 17.835938 81.4375 18.253906 81.523438 18.6875 C 81.609375 19.117188 81.652344 19.554688 81.652344 19.992188 Z M 81.652344 19.992188 " fill-opacity="1" fill-rule="nonzero"/><g clip-path="url(#2d4b47f70d)"><path fill="#2e2e41" d="M 69.078125 24.976562 C 69.078125 24.976562 64.066406 15.75 68.585938 11.3125 C 73.101562 6.875 76.730469 9.800781 76.730469 9.800781 L 78.800781 9.714844 C 78.800781 9.714844 79.234375 11.339844 79.929688 10.460938 C 80.625 9.582031 81.882812 12.785156 81.882812 12.785156 C 84.21875 16.976562 76.121094 17.917969 76.121094 17.917969 C 76.121094 17.917969 76.707031 19.773438 76.113281 20.160156 C 75.519531 20.550781 73.929688 22.011719 73.929688 22.011719 L 72.507812 23.082031 L 71.664062 21.800781 C 71.664062 21.800781 70.78125 21.105469 70.335938 21.398438 C 69.890625 21.691406 70.503906 25.527344 70.503906 25.527344 Z M 69.078125 24.976562 " fill-opacity="1" fill-rule="nonzero"/></g><path fill="#2e2e41" d="M 61.011719 92.832031 L 58.441406 131.042969 L 64.761719 131.257812 L 73.113281 93.152344 Z M 61.011719 92.832031 " fill-opacity="1" fill-rule="nonzero"/><path fill="#2e2e41" d="M 76.328125 92.617188 L 73.757812 130.828125 L 80.074219 131.042969 L 88.429688 92.9375 Z M 76.328125 92.617188 " fill-opacity="1" fill-rule="nonzero"/><path fill="#e8e9ea" d="M 59.464844 101.5625 L 62.828125 59.945312 L 57.671875 38.273438 C 57.226562 35.050781 59.261719 32.003906 62.40625 31.171875 L 67.453125 29.839844 L 69.6875 27.613281 L 74.769531 38.796875 L 77.941406 27.621094 L 80.417969 29.414062 L 87.757812 32.640625 L 87.753906 32.71875 L 86.578125 58.894531 L 89.207031 101.191406 L 89.089844 101.191406 Z M 59.464844 101.5625 " fill-opacity="1" fill-rule="nonzero"/><g clip-path="url(#ac5de12125)"><path fill="#2e2e41" d="M 79.671875 130.609375 L 81.5 136.050781 C 81.5 136.050781 88.65625 137.023438 88.769531 139.230469 C 88.878906 141.4375 79.039062 140.160156 73.28125 140.449219 C 67.519531 140.738281 72.3125 134.519531 72.3125 134.519531 L 72.929688 130.945312 Z M 79.671875 130.609375 " fill-opacity="1" fill-rule="nonzero"/></g><g clip-path="url(#2481154f44)"><path fill="#2e2e41" d="M 64.730469 130.21875 L 66.558594 135.660156 C 66.558594 135.660156 73.714844 136.628906 73.828125 138.839844 C 73.9375 141.046875 64.101562 139.769531 58.339844 140.058594 C 52.578125 140.347656 57.375 134.128906 57.375 134.128906 L 57.988281 130.554688 Z M 64.730469 130.21875 " fill-opacity="1" fill-rule="nonzero"/></g><path fill="#fdb4b4" d="M 55.804688 79.460938 C 55.726562 78.386719 55.90625 77.308594 56.332031 76.320312 L 54.96875 65.15625 L 60.316406 64.664062 L 61.125 76.042969 C 61.664062 76.976562 61.96875 78.023438 62.015625 79.097656 C 62.171875 81.785156 60.910156 84.042969 59.195312 84.144531 C 57.476562 84.246094 55.960938 82.148438 55.804688 79.460938 Z M 55.804688 79.460938 " fill-opacity="1" fill-rule="nonzero"/><path fill="#fdb4b4" d="M 89.679688 81.097656 C 89.613281 80.023438 89.808594 78.949219 90.246094 77.964844 L 89 66.789062 L 94.355469 66.355469 L 95.039062 77.738281 C 95.566406 78.679688 95.859375 79.730469 95.898438 80.804688 C 96.023438 83.492188 94.738281 85.738281 93.019531 85.820312 C 91.304688 85.902344 89.808594 83.789062 89.679688 81.097656 Z M 89.679688 81.097656 " fill-opacity="1" fill-rule="nonzero"/><path fill="#e8e9ea" d="M 54.945312 74.984375 L 54.925781 74.886719 L 52.140625 59.980469 L 55.433594 35.707031 C 55.726562 33.539062 57.667969 31.976562 59.859375 32.152344 C 61 32.242188 62.027344 32.78125 62.746094 33.671875 C 63.464844 34.5625 63.777344 35.679688 63.625 36.8125 L 61.144531 55.015625 L 62.707031 74.488281 C 62.707031 74.488281 54.945312 74.984375 54.945312 74.984375 Z M 54.945312 74.984375 " fill-opacity="1" fill-rule="nonzero"/><path fill="#e8e9ea" d="M 88.027344 74.632812 L 82.425781 37.347656 C 82.132812 36.253906 82.304688 35.109375 82.90625 34.136719 C 83.511719 33.164062 84.460938 32.5 85.585938 32.269531 C 87.734375 31.828125 89.855469 33.136719 90.417969 35.25 L 95.800781 74.164062 Z M 88.027344 74.632812 " fill-opacity="1" fill-rule="nonzero"/><path fill="#d6d7d8" d="M 75.621094 41.519531 C 75.621094 41.707031 75.554688 41.871094 75.417969 42.003906 C 75.285156 42.136719 75.125 42.203125 74.933594 42.203125 C 74.742188 42.203125 74.582031 42.136719 74.445312 42.003906 C 74.3125 41.871094 74.246094 41.707031 74.246094 41.519531 C 74.246094 41.328125 74.3125 41.167969 74.445312 41.035156 C 74.582031 40.898438 74.742188 40.832031 74.933594 40.832031 C 75.125 40.832031 75.285156 40.898438 75.417969 41.035156 C 75.554688 41.167969 75.621094 41.328125 75.621094 41.519531 Z M 75.621094 41.519531 " fill-opacity="1" fill-rule="nonzero"/><path fill="#d6d7d8" d="M 75.621094 46.710938 C 75.621094 46.898438 75.554688 47.0625 75.417969 47.195312 C 75.285156 47.328125 75.125 47.398438 74.933594 47.398438 C 74.742188 47.398438 74.582031 47.328125 74.445312 47.195312 C 74.3125 47.0625 74.246094 46.898438 74.246094 46.710938 C 74.246094 46.523438 74.3125 46.359375 74.445312 46.226562 C 74.582031 46.09375 74.742188 46.023438 74.933594 46.023438 C 75.125 46.023438 75.285156 46.09375 75.417969 46.226562 C 75.554688 46.359375 75.621094 46.523438 75.621094 46.710938 Z M 75.621094 46.710938 " fill-opacity="1" fill-rule="nonzero"/><path fill="#d6d7d8" d="M 75.621094 51.902344 C 75.621094 52.09375 75.554688 52.253906 75.417969 52.386719 C 75.285156 52.523438 75.125 52.589844 74.933594 52.589844 C 74.742188 52.589844 74.582031 52.523438 74.445312 52.386719 C 74.3125 52.253906 74.246094 52.09375 74.246094 51.902344 C 74.246094 51.714844 74.3125 51.550781 74.445312 51.417969 C 74.582031 51.285156 74.742188 51.21875 74.933594 51.21875 C 75.125 51.21875 75.285156 51.285156 75.417969 51.417969 C 75.554688 51.550781 75.621094 51.714844 75.621094 51.902344 Z M 75.621094 51.902344 " fill-opacity="1" fill-rule="nonzero"/><path fill="#d6d7d8" d="M 75.621094 57.09375 C 75.621094 57.285156 75.554688 57.445312 75.417969 57.582031 C 75.285156 57.714844 75.125 57.78125 74.933594 57.78125 C 74.742188 57.78125 74.582031 57.714844 74.445312 57.582031 C 74.3125 57.445312 74.246094 57.285156 74.246094 57.09375 C 74.246094 56.90625 74.3125 56.746094 74.445312 56.609375 C 74.582031 56.476562 74.742188 56.410156 74.933594 56.410156 C 75.125 56.410156 75.285156 56.476562 75.417969 56.609375 C 75.554688 56.746094 75.621094 56.90625 75.621094 57.09375 Z M 75.621094 57.09375 " fill-opacity="1" fill-rule="nonzero"/><path fill="#d6d7d8" d="M 75.621094 62.289062 C 75.621094 62.476562 75.554688 62.640625 75.417969 62.773438 C 75.285156 62.90625 75.125 62.972656 74.933594 62.972656 C 74.742188 62.972656 74.582031 62.90625 74.445312 62.773438 C 74.3125 62.640625 74.246094 62.476562 74.246094 62.289062 C 74.246094 62.097656 74.3125 61.9375 74.445312 61.804688 C 74.582031 61.667969 74.742188 61.601562 74.933594 61.601562 C 75.125 61.601562 75.285156 61.667969 75.417969 61.804688 C 75.554688 61.9375 75.621094 62.097656 75.621094 62.289062 Z M 75.621094 62.289062 " fill-opacity="1" fill-rule="nonzero"/><path fill="#d6d7d8" d="M 75.621094 67.480469 C 75.621094 67.667969 75.554688 67.832031 75.417969 67.964844 C 75.285156 68.097656 75.125 68.164062 74.933594 68.164062 C 74.742188 68.164062 74.582031 68.097656 74.445312 67.964844 C 74.3125 67.832031 74.246094 67.667969 74.246094 67.480469 C 74.246094 67.289062 74.3125 67.128906 74.445312 66.996094 C 74.582031 66.859375 74.742188 66.792969 74.933594 66.792969 C 75.125 66.792969 75.285156 66.859375 75.417969 66.996094 C 75.554688 67.128906 75.621094 67.289062 75.621094 67.480469 Z M 75.621094 67.480469 " fill-opacity="1" fill-rule="nonzero"/><path fill="#d6d7d8" d="M 75.621094 72.671875 C 75.621094 72.863281 75.554688 73.023438 75.417969 73.15625 C 75.285156 73.289062 75.125 73.359375 74.933594 73.359375 C 74.742188 73.359375 74.582031 73.289062 74.445312 73.15625 C 74.3125 73.023438 74.246094 72.863281 74.246094 72.671875 C 74.246094 72.484375 74.3125 72.320312 74.445312 72.1875 C 74.582031 72.054688 74.742188 71.988281 74.933594 71.988281 C 75.125 71.988281 75.285156 72.054688 75.417969 72.1875 C 75.554688 72.320312 75.621094 72.484375 75.621094 72.671875 Z M 75.621094 72.671875 " fill-opacity="1" fill-rule="nonzero"/><path fill="#d6d7d8" d="M 75.621094 77.863281 C 75.621094 78.054688 75.554688 78.214844 75.417969 78.347656 C 75.285156 78.484375 75.125 78.550781 74.933594 78.550781 C 74.742188 78.550781 74.582031 78.484375 74.445312 78.347656 C 74.3125 78.214844 74.246094 78.054688 74.246094 77.863281 C 74.246094 77.675781 74.3125 77.511719 74.445312 77.378906 C 74.582031 77.246094 74.742188 77.179688 74.933594 77.179688 C 75.125 77.179688 75.285156 77.246094 75.417969 77.378906 C 75.554688 77.511719 75.621094 77.675781 75.621094 77.863281 Z M 75.621094 77.863281 " fill-opacity="1" fill-rule="nonzero"/><path fill="#6c63ff" d="M 74.933594 82.566406 L 61.914062 80.835938 L 61.664062 80.804688 L 55.011719 65.515625 L 51.046875 56.410156 L 61.371094 56.410156 Z M 74.933594 82.566406 " fill-opacity="1" fill-rule="nonzero"/><path fill="#3f3c57" d="M 81.242188 38.039062 L 80.816406 37.914062 C 81.703125 34.878906 79.8125 29.132812 79.792969 29.078125 L 80.324219 29.476562 C 80.40625 29.714844 82.167969 34.871094 81.242188 38.039062 Z M 81.242188 38.039062 " fill-opacity="1" fill-rule="nonzero"/><path fill="#3f3c57" d="M 66.269531 38.574219 L 66.695312 38.453125 C 65.804688 35.417969 67.71875 29.761719 67.738281 29.703125 L 67.285156 30.007812 C 67.203125 30.246094 65.339844 35.410156 66.269531 38.574219 Z M 66.269531 38.574219 " fill-opacity="1" fill-rule="nonzero"/><path fill="#3f3c57" d="M 82.882812 39.671875 C 82.882812 39.917969 82.835938 40.152344 82.742188 40.378906 C 82.648438 40.605469 82.511719 40.804688 82.339844 40.980469 C 82.164062 41.152344 81.964844 41.285156 81.738281 41.378906 C 81.511719 41.472656 81.273438 41.519531 81.027344 41.519531 C 80.78125 41.519531 80.546875 41.472656 80.320312 41.378906 C 80.09375 41.285156 79.890625 41.152344 79.71875 40.980469 C 79.542969 40.804688 79.410156 40.605469 79.316406 40.378906 C 79.222656 40.152344 79.175781 39.917969 79.175781 39.671875 C 79.175781 39.429688 79.222656 39.191406 79.316406 38.964844 C 79.410156 38.742188 79.542969 38.539062 79.71875 38.367188 C 79.890625 38.195312 80.09375 38.0625 80.320312 37.96875 C 80.546875 37.875 80.78125 37.828125 81.027344 37.828125 C 81.273438 37.828125 81.511719 37.875 81.738281 37.96875 C 81.964844 38.0625 82.164062 38.195312 82.339844 38.367188 C 82.511719 38.539062 82.648438 38.742188 82.742188 38.964844 C 82.835938 39.191406 82.882812 39.429688 82.882812 39.671875 Z M 82.882812 39.671875 " fill-opacity="1" fill-rule="nonzero"/><path fill="#3f3c57" d="M 68.242188 49.9375 L 67.121094 49.9375 C 66.996094 49.9375 66.898438 49.835938 66.898438 49.714844 C 66.898438 49.59375 66.996094 49.492188 67.121094 49.492188 L 68.242188 49.492188 C 68.554688 49.492188 68.84375 49.375 69.0625 49.15625 C 69.28125 48.9375 69.402344 48.644531 69.402344 48.335938 L 69.386719 41.4375 C 69.386719 39.9375 68.164062 38.71875 66.660156 38.71875 C 65.15625 38.71875 63.933594 39.9375 63.933594 41.4375 L 63.949219 47.894531 C 63.949219 48.527344 64.464844 49.042969 65.097656 49.046875 L 65.867188 49.054688 C 65.992188 49.054688 66.089844 49.152344 66.089844 49.277344 C 66.085938 49.398438 65.988281 49.496094 65.867188 49.496094 L 65.863281 49.496094 L 65.09375 49.488281 C 64.21875 49.484375 63.503906 48.769531 63.503906 47.898438 L 63.488281 41.4375 C 63.488281 39.695312 64.914062 38.277344 66.660156 38.277344 C 68.410156 38.277344 69.832031 39.695312 69.832031 41.4375 L 69.84375 48.335938 C 69.847656 48.765625 69.679688 49.164062 69.378906 49.46875 C 69.074219 49.769531 68.671875 49.9375 68.242188 49.9375 Z M 68.242188 49.9375 " fill-opacity="1" fill-rule="nonzero"/><path fill="#3f3c57" d="M 66.652344 49.273438 C 66.652344 49.492188 66.574219 49.675781 66.421875 49.828125 C 66.269531 49.980469 66.082031 50.058594 65.867188 50.058594 C 65.648438 50.058594 65.464844 49.980469 65.308594 49.828125 C 65.15625 49.675781 65.078125 49.492188 65.078125 49.273438 C 65.078125 49.058594 65.15625 48.875 65.308594 48.71875 C 65.464844 48.566406 65.648438 48.492188 65.867188 48.492188 C 66.082031 48.492188 66.269531 48.566406 66.421875 48.71875 C 66.574219 48.875 66.652344 49.058594 66.652344 49.273438 Z M 66.652344 49.273438 " fill-opacity="1" fill-rule="nonzero"/><path fill="#3f3c57" d="M 67.90625 49.714844 C 67.90625 49.929688 67.828125 50.117188 67.675781 50.269531 C 67.523438 50.421875 67.335938 50.5 67.121094 50.5 C 66.902344 50.5 66.71875 50.421875 66.5625 50.269531 C 66.410156 50.117188 66.332031 49.929688 66.332031 49.714844 C 66.332031 49.5 66.410156 49.3125 66.5625 49.160156 C 66.71875 49.007812 66.902344 48.929688 67.121094 48.929688 C 67.335938 48.929688 67.523438 49.007812 67.675781 49.160156 C 67.828125 49.3125 67.90625 49.5 67.90625 49.714844 Z M 67.90625 49.714844 " fill-opacity="1" fill-rule="nonzero"/></svg>