<svg xmlns="http://www.w3.org/2000/svg" xmlns:xlink="http://www.w3.org/1999/xlink" id="Layer_1" viewBox="0 0 304.5 80.1"><defs><style>.cls-1{fill:none;}.cls-2{fill:url(#linear-gradient);}.cls-3{fill:url(#radial-gradient);}.cls-3,.cls-4,.cls-5{fill-rule:evenodd;}.cls-6{mask:url(#mask);}.cls-7{fill:#009659;}.cls-8{fill:#b11116;}.cls-9{fill:#d1d3d4;}.cls-10{fill:#474647;opacity:.25;}.cls-10,.cls-11{isolation:isolate;}.cls-11{fill:#fff;}.cls-11,.cls-12{opacity:.4;}.cls-4{fill:url(#radial-gradient-2);}.cls-13{fill:url(#linear-gradient-3);}.cls-14{fill:url(#linear-gradient-4);}.cls-15{fill:url(#linear-gradient-2);}.cls-16{fill:url(#linear-gradient-5);}.cls-17{opacity:.95;}.cls-5{fill:#ce3431;}.cls-18{mask:url(#mask-1);}</style><linearGradient id="linear-gradient" x1="25.6" y1="69.5" x2="25.6" y2="38" gradientTransform="translate(0 82) scale(1 -1)" gradientUnits="userSpaceOnUse"><stop offset="0" stop-color="#fff" stop-opacity=".7"></stop><stop offset=".09" stop-color="#fff" stop-opacity=".65"></stop><stop offset="1" stop-color="#fff" stop-opacity=".2"></stop></linearGradient><linearGradient id="linear-gradient-2" x1="72.25" y1="69.09" x2="72.25" y2="48.08" gradientTransform="translate(0 82) scale(1 -1)" gradientUnits="userSpaceOnUse"><stop offset="0" stop-color="#fff" stop-opacity=".7"></stop><stop offset=".09" stop-color="#fff" stop-opacity=".65"></stop><stop offset="1" stop-color="#fff" stop-opacity=".2"></stop></linearGradient><linearGradient id="linear-gradient-3" x1="113.18" y1="69.38" x2="113.18" y2="37.79" gradientTransform="translate(0 82) scale(1 -1)" gradientUnits="userSpaceOnUse"><stop offset="0" stop-color="#fff" stop-opacity=".7"></stop><stop offset=".09" stop-color="#fff" stop-opacity=".65"></stop><stop offset="1" stop-color="#fff" stop-opacity=".2"></stop></linearGradient><linearGradient id="linear-gradient-4" x1="148.22" y1="68.78" x2="148.22" y2="35.46" gradientTransform="translate(0 82) scale(1 -1)" gradientUnits="userSpaceOnUse"><stop offset="0" stop-color="#fff" stop-opacity=".7"></stop><stop offset=".09" stop-color="#fff" stop-opacity=".65"></stop><stop offset="1" stop-color="#fff" stop-opacity=".2"></stop></linearGradient><linearGradient id="linear-gradient-5" x1="187.4" y1="68.8" x2="187.4" y2="34.31" gradientTransform="translate(0 82) scale(1 -1)" gradientUnits="userSpaceOnUse"><stop offset="0" stop-color="#fff" stop-opacity=".7"></stop><stop offset=".09" stop-color="#fff" stop-opacity=".65"></stop><stop offset="1" stop-color="#fff" stop-opacity=".2"></stop></linearGradient><filter id="a" x="4.7" y="29.3" width="187.3" height="20.5"></filter><mask id="mask" x="1.25" y="28.63" width="427.11" height="22.92" maskUnits="userSpaceOnUse"></mask><radialGradient id="radial-gradient" cx="240.94" cy="52.91" fx="240.94" fy="52.91" r="19.02" gradientTransform="translate(-1.01 80.81) scale(1.01 -.97)" gradientUnits="userSpaceOnUse"><stop offset="0" stop-color="#e8a794"></stop><stop offset="1" stop-color="#d75f4e"></stop></radialGradient><radialGradient id="radial-gradient-2" cx="234.45" cy="56.99" fx="234.45" fy="56.99" r="15.6" gradientTransform="translate(-1.01 80.81) scale(1.01 -.97)" gradientUnits="userSpaceOnUse"><stop offset="0" stop-color="#e8a794"></stop><stop offset="1" stop-color="#d75f4e"></stop></radialGradient><filter id="l" x="226.6" y="4.8" width="8.9" height="16.8"></filter><mask id="mask-1" x="260.43" y="-.24" width="33.32" height="20.12" maskUnits="userSpaceOnUse"></mask></defs><g><path class="cls-8" d="M50.06,65.07h.58l5.72,11.61h-.58l-1.63-3.38h-7.36l-1.63,3.38h-.58l5.49-11.61Zm3.74,7.66l-3.5-7.1-3.39,7.1h6.89Z"></path><path class="cls-8" d="M62.32,75.56l.35-.45c.93,.68,2.1,1.13,3.27,1.13,1.4,0,2.45-.68,2.45-1.69,0-1.13-1.28-1.58-2.57-1.92-1.63-.45-3.04-.9-3.04-2.25,0-1.24,1.17-2.14,2.92-2.14,.93,0,2.1,.34,3.04,.9l-.35,.45c-.82-.56-1.87-.9-2.69-.9-1.4,0-2.34,.68-2.34,1.69s1.17,1.47,2.57,1.8c1.52,.45,3.04,.9,3.04,2.37,0,1.35-1.28,2.25-3.04,2.25-1.28,0-2.57-.45-3.62-1.24Z"></path><path class="cls-8" d="M70.62,72.51c0-2.48,1.75-4.4,4.09-4.4,2.57,0,3.97,2.14,3.97,4.4v.23h-7.47c.12,2.25,1.75,3.72,3.74,3.72,1.28,0,2.45-.68,3.15-1.58l.47,.34c-.82,1.01-1.99,1.69-3.5,1.69-2.45,0-4.44-1.69-4.44-4.4Zm7.47-.34c-.12-1.8-1.28-3.61-3.39-3.61-1.99,0-3.39,1.58-3.5,3.61h6.89Z"></path><path class="cls-8" d="M81.01,68.34h.58v2.59c.47-1.47,1.87-2.71,3.62-2.71v.56h-.12c-2.1,0-3.62,1.92-3.62,3.95v3.95h-.47v-8.34Z"></path><path class="cls-8" d="M86.62,68.34h.58l3.5,7.78,3.5-7.78h.58l-3.97,8.34h-.47l-3.74-8.34Z"></path><path class="cls-8" d="M96.78,65.07h.7v1.01h-.7v-1.01Zm.12,3.27h.58v8.34h-.58v-8.34Z"></path><path class="cls-8" d="M102.61,78.82l1.28-1.92c-2.34-.11-4.09-2.03-4.09-4.28,0-2.37,1.87-4.4,4.44-4.4,1.63,0,2.57,.68,3.39,1.58l-.35,.23c-.7-.79-1.75-1.47-3.04-1.47-2.22,0-3.85,1.69-3.85,3.83s1.75,3.83,3.85,3.83c1.4,0,2.34-.68,3.15-1.47l.35,.34c-.82,.9-1.87,1.58-3.39,1.69l-1.17,2.25-.58-.23Z"></path><path class="cls-8" d="M109.04,72.51c0-2.37,1.87-4.4,4.44-4.4s4.44,2.03,4.44,4.28c0,2.37-1.87,4.4-4.44,4.4-2.57,.11-4.44-1.92-4.44-4.28Zm8.41,0c0-2.14-1.63-3.83-3.85-3.83s-3.85,1.8-3.85,3.83c0,2.14,1.63,3.83,3.85,3.83s3.85-1.69,3.85-3.83Z"></path><path class="cls-8" d="M124.57,72.51c0-2.59,1.99-4.4,4.32-4.4,1.87,0,3.27,1.13,3.85,2.48v-5.97h.58v12.06h-.58v-2.25c-.58,1.35-1.99,2.48-3.85,2.48-2.34,0-4.32-1.8-4.32-4.4Zm8.17,0c0-2.14-1.75-3.83-3.85-3.83-2.22,0-3.74,1.58-3.74,3.83s1.63,3.83,3.74,3.83,3.85-1.69,3.85-3.83Z"></path><path class="cls-8" d="M135.66,72.51c0-2.48,1.75-4.4,4.09-4.4,2.57,0,3.97,2.14,3.97,4.4v.23h-7.47c.12,2.25,1.75,3.72,3.74,3.72,1.28,0,2.45-.68,3.15-1.58l.47,.34c-.82,1.01-1.99,1.69-3.5,1.69-2.57,0-4.44-1.69-4.44-4.4Zm7.47-.34c-.12-1.8-1.28-3.61-3.39-3.61-1.99,0-3.39,1.58-3.5,3.61h6.89Z"></path><path class="cls-8" d="M150.03,75.56l.35-.45c.93,.68,2.1,1.13,3.27,1.13,1.4,0,2.45-.68,2.45-1.69,0-1.13-1.28-1.58-2.57-1.92-1.63-.45-3.04-.9-3.04-2.25,0-1.24,1.17-2.14,2.92-2.14,1.05,0,2.1,.34,3.04,.9l-.35,.45c-.82-.56-1.87-.9-2.69-.9-1.4,0-2.34,.68-2.34,1.69s1.17,1.47,2.57,1.8c1.52,.45,3.04,.9,3.04,2.37,0,1.35-1.28,2.25-3.04,2.25-1.4,0-2.69-.45-3.62-1.24Z"></path><path class="cls-8" d="M158.32,72.51c0-2.48,1.75-4.4,4.09-4.4,2.57,0,3.97,2.14,3.97,4.4v.23h-7.47c.12,2.25,1.75,3.72,3.74,3.72,1.28,0,2.45-.68,3.15-1.58l.47,.34c-.82,1.01-1.99,1.69-3.5,1.69-2.57,0-4.44-1.69-4.44-4.4h0Zm7.47-.34c-.12-1.8-1.28-3.61-3.39-3.61-1.99,0-3.39,1.58-3.5,3.61h6.89Z"></path><path class="cls-8" d="M168.48,73.19v-4.85h.58v4.85c0,1.92,1.05,3.27,3.04,3.27,1.87,0,3.27-1.47,3.27-3.38v-4.73h.58v8.34h-.58v-2.03c-.35,1.01-1.52,2.14-3.27,2.14-2.34,.11-3.62-1.47-3.62-3.61Z"></path><path class="cls-8" d="M184.24,74.43v2.25h-.58v-12.06h.58v6.09c.58-1.35,1.99-2.48,3.85-2.48,2.34,0,4.2,1.8,4.2,4.4s-1.99,4.4-4.2,4.4c-1.99-.11-3.27-1.24-3.85-2.59Zm7.47-1.92c0-2.25-1.63-3.83-3.74-3.83s-3.85,1.69-3.85,3.83,1.75,3.83,3.85,3.83c2.22,0,3.74-1.58,3.74-3.83Z"></path><path class="cls-8" d="M194.17,72.51c0-2.48,1.75-4.4,4.09-4.4,2.57,0,3.97,2.14,3.97,4.4v.23h-7.47c.12,2.25,1.75,3.72,3.74,3.72,1.28,0,2.45-.68,3.15-1.58l.47,.34c-.82,1.01-1.99,1.69-3.5,1.69-2.45,0-4.44-1.69-4.44-4.4h0Zm7.47-.34c-.12-1.8-1.28-3.61-3.39-3.61-1.99,0-3.39,1.58-3.5,3.61h6.89Z"></path><path class="cls-8" d="M204.56,68.34h.58v1.92c.35-1.01,1.4-2.03,2.92-2.03,1.75,0,2.69,1.01,3.04,2.14,.47-1.13,1.52-2.14,3.15-2.14,1.99,0,3.27,1.24,3.27,3.61v4.96h-.58v-4.96c0-2.03-1.05-3.16-2.8-3.16-1.52,0-2.92,1.24-2.92,3.16v4.85h-.58v-4.96c0-2.03-1.17-3.04-2.69-3.04s-2.92,1.35-2.92,3.16v4.85h-.58v-8.34h.12Z"></path><path class="cls-8" d="M220.1,71.5h4.44v.56h-4.44v-.56Z"></path><path class="cls-8" d="M226.75,72.51c0-2.48,1.75-4.4,4.09-4.4,2.57,0,3.97,2.14,3.97,4.4v.23h-7.47c.12,2.25,1.75,3.72,3.74,3.72,1.28,0,2.45-.68,3.15-1.58l.47,.34c-.82,1.01-1.99,1.69-3.5,1.69-2.45,0-4.44-1.69-4.44-4.4h0Zm7.47-.34c-.12-1.8-1.28-3.61-3.39-3.61-1.99,0-3.39,1.58-3.5,3.61h6.89Z"></path><path class="cls-8" d="M236.33,75.56l.35-.45c.93,.68,2.1,1.13,3.27,1.13,1.4,0,2.45-.68,2.45-1.69,0-1.13-1.28-1.58-2.57-1.92-1.63-.45-3.04-.9-3.04-2.25,0-1.24,1.17-2.14,2.92-2.14,.93,0,2.1,.34,3.04,.9l-.35,.45c-.82-.56-1.87-.9-2.69-.9-1.4,0-2.34,.68-2.34,1.69s1.17,1.47,2.57,1.8c1.52,.45,3.04,.9,3.04,2.37,0,1.35-1.28,2.25-3.04,2.25-1.4,0-2.69-.45-3.62-1.24Z"></path><path class="cls-8" d="M245.79,74.54v-5.75h-1.28v-.45h1.28v-2.82h.58v2.82h3.15v.45h-3.15v5.64c0,1.24,.7,1.8,1.75,1.8,.47,0,.82-.11,1.28-.34v.56c-.47,.23-.82,.23-1.4,.23-1.28,.11-2.22-.68-2.22-2.14h0Z"></path><path class="cls-8" d="M250.81,74.32c0-1.8,1.63-2.71,3.85-2.71,1.17,0,2.22,.23,3.04,.45v-.56c0-1.92-1.17-2.82-3.04-2.82-1.05,0-1.99,.23-2.8,.68l-.23-.45c.93-.45,1.87-.68,3.04-.68s2.1,.34,2.69,.9,.82,1.35,.82,2.37v5.18h-.58v-1.69c-.47,.9-1.63,1.92-3.62,1.92-1.63,0-3.15-.9-3.15-2.59h0Zm6.89-.68v-1.01c-.82-.23-1.87-.45-3.15-.45-1.87,0-3.27,.79-3.27,2.14s1.28,2.03,2.69,2.03c2.22,0,3.74-1.24,3.74-2.71Z"></path><path class="cls-8" d="M260.97,68.34h.58v2.59c.47-1.47,1.87-2.71,3.62-2.71v.56h-.12c-2.1,0-3.62,1.92-3.62,3.95v3.95h-.58v-8.34h.12Z"></path><path class="cls-8" d="M265.52,75.56h.82v1.13h-.82v-1.13Z"></path></g><path class="cls-1" d="M83.81,40.28l-3.39-6.88-7.71-1.8-8.99-.56-4.55,9.24h24.64Z"></path><path class="cls-1" d="M28.81,52.79c5.96,0,11.21-2.48,14.6-5.18v-12.51h-15.18v-.9l-2.45,.68-13.31,6.99-.82,.68c2.8,6.09,8.88,10.26,17.17,10.26Z"></path><g><path class="cls-7" d="M28.22,35.09h15.18v12.51c-3.39,2.71-8.64,5.18-14.6,5.18-8.29,0-14.25-4.17-17.17-10.26l-1.63,1.35c3.27,6.31,9.81,10.6,18.8,10.6,6.89,0,12.73-2.82,16.7-6.2v-15.1h-13.31l-4.09,1.01v.9h.12Z"></path><path class="cls-7" d="M83.81,40.28h-24.64l4.55-9.24-2.1-.23-11.33,23.11h2.1l5.84-11.95h26.51l5.72,11.95h2.34l-9.93-19.95-2.45-.56,3.39,6.88Z"></path><path class="cls-7" d="M113.94,52.67c-6.19,0-11.21-2.14-15.77-6.2l-1.4,1.47c4.79,4.28,10.39,6.54,17.05,6.54,8.41,0,14.01-4.28,14.36-10.26l-1.99-.45c-.12,5.07-4.9,8.9-12.26,8.9Z"></path><path class="cls-7" d="M147.22,53.91h1.99v-7.44l-1.99-.11v7.55Z"></path><path class="cls-7" d="M170.93,53.91h2.1v-6.65l-2.1,.45v6.2Z"></path><path class="cls-7" d="M202.11,53.91h2.69l-8.99-11.05-2.22,.45,8.53,10.6Z"></path><path class="cls-7" d="M9.66,33.63v-.11c0-10.03,7.47-19.16,18.92-19.16,6.31,0,10.16,2.03,13.9,4.96l1.4-1.47c-4.32-3.38-8.41-5.3-15.18-5.3-12.85,0-21.14,10.14-21.14,21.08v.11c0,3.72,.82,7.33,2.45,10.37l1.63-1.35c-1.4-2.82-1.99-5.86-1.99-9.13Z"></path><path class="cls-7" d="M28.22,34.3l3.97-1.13h-3.97v1.13Z"></path></g><path class="cls-11" d="M28.22,34.3l3.97-1.13h-3.97v1.13Z"></path><g><path class="cls-7" d="M70.5,12.89l-8.88,17.92,2.1,.23,7.71-15.78,8.99,18.15,2.45,.56-10.39-21.08h-1.99Z"></path><path class="cls-7" d="M128.19,43.43c0-5.75-3.85-8.9-14.48-10.93-10.39-2.03-13.31-4.62-13.31-9.36v-.11c0-4.51,4.67-8.57,11.68-8.57,5.02,0,9.46,1.58,13.43,4.51l1.28-1.58c-4.09-3.04-8.64-4.73-14.6-4.73-8.06,0-13.9,4.73-13.9,10.48v.11c0,5.86,4.09,9.02,14.6,10.93,10.28,2.03,13.2,4.62,13.2,9.36v.11l1.99,.45v-.68h.12Z"></path><path class="cls-7" d="M164.51,15.03v-1.8h-32.58v1.8h15.3v31.34l1.99,.11V15.03h15.3Z"></path><path class="cls-7" d="M203.98,24.72v-.11c0-3.04-1.17-5.64-3.15-7.55-2.69-2.48-6.77-3.95-12.26-3.95h-17.63V47.6l2.1-.45v-10.71h15.18l5.37,6.76,2.22-.45-5.37-6.54c7.94-.56,13.55-4.62,13.55-11.5Zm-15.88,10.03h-15.06V15.03h15.42c8.41,0,13.43,3.61,13.43,9.81v.11c0,5.64-5.02,9.81-13.78,9.81Z"></path><path class="cls-7" d="M288.88,32.39c-10.39-2.03-13.31-4.62-13.31-9.36v-.11c0-4.51,4.67-8.57,11.68-8.57,5.02,0,9.46,1.58,13.43,4.51l1.28-1.58c-4.09-3.04-8.64-4.73-14.6-4.73-8.06,0-13.9,4.73-13.9,10.48v.11c0,5.86,4.09,9.02,14.6,10.93,10.28,2.03,13.2,4.62,13.2,9.36v.11c0,5.07-4.79,8.9-12.26,8.9-6.19,0-11.21-2.14-15.77-6.2l-1.4,1.47c4.79,4.28,10.39,6.54,17.05,6.54,8.76,0,14.36-4.62,14.36-10.93v-.11c.12-5.52-3.74-8.79-14.36-10.82h0Z"></path></g><path class="cls-2" d="M7.44,33.51v.11c0,3.72,.82,7.33,2.45,10.37l1.63-1.35c-1.28-2.71-1.99-5.75-1.99-9.02v-.11c0-10.03,7.47-19.16,18.92-19.16,6.31,0,10.16,2.03,13.9,4.96l1.4-1.47c-4.32-3.38-8.41-5.3-15.18-5.3-12.85,0-21.14,10.03-21.14,20.97Z"></path><path class="cls-15" d="M70.5,12.89l-8.88,17.92,2.1,.23,7.71-15.78,8.99,18.15,2.45,.56-10.39-21.08h-1.99Z"></path><path class="cls-13" d="M113.71,32.39c-10.39-2.03-13.31-4.62-13.31-9.36v-.11c0-4.51,4.67-8.57,11.68-8.57,5.02,0,9.46,1.58,13.43,4.51l1.28-1.58c-4.09-3.04-8.64-4.73-14.6-4.73-8.06,0-13.9,4.73-13.9,10.48v.11c0,5.86,4.09,9.02,14.6,10.93,10.28,2.03,13.2,4.62,13.2,9.36v.11l1.99,.45v-.79c.12-5.52-3.74-8.79-14.36-10.82Z"></path><path class="cls-14" d="M131.93,15.03h15.3v31.34l1.99,.11V15.03h15.3v-1.8h-32.58v1.8Z"></path><path class="cls-16" d="M200.83,17.06c-2.69-2.48-6.77-3.95-12.26-3.95h-17.63V47.6l2.1-.45v-10.71h15.18l5.37,6.76,2.22-.45-5.37-6.54c7.82-.68,13.43-4.62,13.43-11.5v-.11c.12-2.93-1.05-5.64-3.04-7.55h0Zm1.05,7.78c0,5.75-5.02,9.81-13.78,9.81h-15.06V15.03h15.42c8.41,0,13.43,3.61,13.43,9.81Z"></path><g class="cls-17"><path class="cls-9" d="M1.25,51.55c.7-.9,7.24-6.76,7.82-7.21,26.86-22.32,61.66-16.79,97.28-8.12,22.54,5.07,42.16,9.58,62.01,8.45,13.2-.79,38.3-4.85,46.6-15.55-.7,6.2,.7,12.4,5.02,17.36-13.55-.11-36.55,4.4-50.22,4.51-25.58,.23-41.81-5.52-64.35-11.05-31.18-7.66-68.32-18.03-95.88,4.73-.58,.56-5.49,4.28-7.94,6.88h-.35Z"></path><g class="cls-6"><path class="cls-10" d="M1.25,51.55c.7-.9,7.24-6.76,7.82-7.21,26.86-22.32,61.66-16.79,97.28-8.12,22.54,5.07,42.16,9.58,62.01,8.45,13.2-.79,38.3-4.85,46.6-15.55-.7,6.2,.7,12.4,5.02,17.36-13.55-.11-36.55,4.4-50.22,4.51-25.58,.23-41.81-5.52-64.35-11.05-31.18-7.66-68.32-18.03-95.88,4.73-.58,.56-5.49,4.28-7.94,6.88h-.35Z"></path></g></g><g><path class="cls-5" d="M227.69,13.22c10.98-6.2,25.11-2.71,31.53,7.66,6.42,10.37,2.69,23.9-8.29,29.98-10.98,6.2-25.11,2.71-31.53-7.66s-2.69-23.78,8.29-29.98Z"></path><path class="cls-3" d="M260.97,24.83c-2.8,13.3-22.54,24.46-38.54,22.43-2.22-12.74,2.57-24.68,23.36-35.96,7.12,1.47,12.73,7.21,15.18,13.53Z"></path><path class="cls-4" d="M219.86,22.8c-3.97,6.88-1.28,14.99,7.82,16.46,25.22,1.92,28.49-21.53,20.09-26.04-8.53-4.51-23.24,.79-27.91,9.58Z"></path></g><path class="cls-7" d="M267.98,7.93c-1.63-2.37-.7-6.88-.7-6.88,0,0-3.97,1.47-6.19,7.1-2.22,5.64,1.63,11.16,4.55,11.72h.23c2.8-5.18-1.05-10.37-1.05-10.37,0,0,5.14,5.07,2.45,10.37,1.87-.45,2.92-2.37,3.39-4.17,.58-2.14-1.05-5.41-2.69-7.78h0Z"></path><g class="cls-18"><g class="cls-12"><path class="cls-7" d="M267.98,7.93c-1.63-2.37-.7-6.88-.7-6.88,0,0-3.97,1.47-6.19,7.1-2.22,5.64,1.63,11.16,4.55,11.72h.23c2.8-5.18-1.05-10.37-1.05-10.37,0,0,5.14,5.07,2.45,10.37,1.87-.45,2.92-2.37,3.39-4.17,.58-2.14-1.05-5.41-2.69-7.78h0Z"></path></g></g></svg>